<?xml version="1.0" encoding="UTF-8" standalone="no"?>
<svg
   version="1.1"
   x="0"
   y="0"
   width="432"
   height="288"
   viewBox="0, 0, 432, 288"
   id="svg68"
   sodipodi:docname="TS-leading-edge-perspective-correction.svg"
   inkscape:version="1.3.2 (091e20e, 2023-11-25, custom)"
   xmlns:inkscape="http://www.inkscape.org/namespaces/inkscape"
   xmlns:sodipodi="http://sodipodi.sourceforge.net/DTD/sodipodi-0.dtd"
   xmlns="http://www.w3.org/2000/svg"
   xmlns:svg="http://www.w3.org/2000/svg">
  <defs
     id="defs68">
    <inkscape:path-effect
       effect="spiro"
       id="path-effect4"
       is_visible="true"
       lpeversion="1" />
  </defs>
  <sodipodi:namedview
     id="namedview68"
     pagecolor="#ffffff"
     bordercolor="#000000"
     borderopacity="0.25"
     inkscape:showpageshadow="2"
     inkscape:pageopacity="0.0"
     inkscape:pagecheckerboard="0"
     inkscape:deskcolor="#d1d1d1"
     inkscape:zoom="16.145605"
     inkscape:cx="235.01752"
     inkscape:cy="141.02909"
     inkscape:window-width="1920"
     inkscape:window-height="1018"
     inkscape:window-x="-6"
     inkscape:window-y="-6"
     inkscape:window-maximized="1"
     inkscape:current-layer="Layer_1" />
  <g
     id="Layer_1"
     transform="translate(11.211679,13.664234)">
    <g
       id="g53">
      <path
         d="m 240.57,118.754 c 18.212,0 32.976,14.764 32.976,32.976 0,18.212 -14.764,32.976 -32.976,32.976 -18.212,0 -32.976,-14.764 -32.976,-32.976 0,-18.212 14.764,-32.976 32.976,-32.976 z m 0,7.488 c -14.077,0 -25.488,11.411 -25.488,25.488 0,14.077 11.411,25.488 25.488,25.488 14.077,0 25.488,-11.411 25.488,-25.488 0,-14.077 -11.411,-25.488 -25.488,-25.488 z"
         fill="#000000"
         fill-opacity="0.186"
         id="path52" />
      <path
         d="m 240.57,118.754 c 18.212,0 32.976,14.764 32.976,32.976 0,18.212 -14.764,32.976 -32.976,32.976 -18.212,0 -32.976,-14.764 -32.976,-32.976 0,-18.212 14.764,-32.976 32.976,-32.976 z m 0,7.488 c -14.077,0 -25.488,11.411 -25.488,25.488 0,14.077 11.411,25.488 25.488,25.488 14.077,0 25.488,-11.411 25.488,-25.488 0,-14.077 -11.411,-25.488 -25.488,-25.488 z"
         fill-opacity="0"
         stroke="#000000"
         stroke-width="0.5"
         id="path53"
         inkscape:label="path53" />
      <circle
         style="fill:#ffffff;fill-opacity:1;stroke:#000000;stroke-width:0.464"
         id="path6"
         cx="240.49767"
         cy="152.07745"
         r="30" />
    </g>
    <path
       d="M 348.89248,204.35463 164.71504,113.26054"
       fill-opacity="0"
       stroke="#929292"
       stroke-width="0.579276"
       stroke-dasharray="1.5, 1"
       id="path15" />
    <g
       id="g17">
      <path
         d="m 82.335,199.547 c -1.587,3.669 -3.006,4.959 -5.024,6.882 -2.018,1.923 -4.811,3.938 -4.811,3.938 0,0 2.689,-0.992 7.294,-0.976 4.606,0.017 5.335,0.492 7.296,0.933"
         fill-opacity="0"
         stroke="#000000"
         stroke-width="1"
         id="path16" />
      <path
         d="m 80.231,202.794 c 3.868,1.692 3.677,5.425 3.306,7.281"
         fill-opacity="0"
         stroke="#000000"
         stroke-width="1"
         id="path17" />
    </g>
    <path
       d="m 249.47861,155.23406 c -1.20295,5.32101 -14.88017,9.44442 -18.54995,-1.3491"
       fill-opacity="0"
       stroke="#000000"
       stroke-width="0.5"
       id="path57-8"
       sodipodi:nodetypes="cc" />
    <path
       style="fill:none;stroke:#000000;stroke-width:0.464"
       id="path22"
       sodipodi:type="arc"
       sodipodi:cx="240.51492"
       sodipodi:cy="150.80646"
       sodipodi:rx="19"
       sodipodi:ry="19"
       sodipodi:start="2.8274334"
       sodipodi:end="4.1887902"
       sodipodi:arc-type="slice"
       d="m 222.44485,156.67778 a 19,19 0 0 1 8.57007,-22.32581 l 9.5,16.45449 z" />
    <path
       style="fill:none;stroke:#000000;stroke-width:0.464"
       id="path22-9"
       sodipodi:type="arc"
       sodipodi:cx="224.27771"
       sodipodi:cy="123.46481"
       sodipodi:rx="8"
       sodipodi:ry="8"
       sodipodi:start="0.55850536"
       sodipodi:end="2.6354472"
       sodipodi:arc-type="slice"
       d="m 231.06209,127.70417 a 8,8 0 0 1 -6.9938,3.7579 8,8 0 0 1 -6.78754,-4.11878 l 6.99696,-3.87848 z" />
    <path
       d="M 84.811246,204.58868 230.35446,119.78414"
       fill-opacity="0"
       stroke="#000000"
       stroke-width="0.540533"
       stroke-dasharray="2, 2"
       id="path18" />
    <path
       style="fill:none;stroke:#000000;stroke-width:0.464"
       d="M 84.963504,204.37226 239.73723,150.87591"
       id="path21" />
    <path
       d="M 240.555,150.785 215.088,106.821"
       fill-opacity="0"
       stroke="#929292"
       stroke-width="0.5"
       id="path20" />
    <text
       transform="translate(75.63,215.074)"
       id="text20"><tspan
         x="-7.796"
         y="2.5"
         font-family="ArialNarrow"
         font-size="9px"
         fill="#000000"
         id="tspan20">Obs.</tspan></text>
    <text
       transform="translate(360.385,215.074)"
       id="text21"><tspan
         x="-6.5650001"
         y="2.5"
         font-family="ArialNarrow"
         font-size="9px"
         fill="#000000"
         id="tspan21">Sun</tspan></text>
    <text
       transform="rotate(-29.41082)"
       id="text22"
       x="70.415794"
       y="229.54683"
       style="font-size:11.9983px;stroke-width:0.999861"><tspan
         x="49.900646"
         y="227.04718"
         font-family="ArialNarrow"
         font-size="8.99875px"
         fill="#000000"
         id="tspan22"
         style="stroke-width:0.999861">Line of Sight</tspan></text>
    <text
       transform="matrix(0.97979546,-0.20003079,0.20003637,0.97979037,8.0404284,-15.559273)"
       id="text22-0"
       x="155.13513"
       y="123.09775"
       style="font-size:11.9983px;white-space:pre;inline-size:12.9317;display:inline;stroke-width:0.999861"
       xml:space="preserve"><tspan
         x="155.13513"
         y="123.09775"
         id="tspan3"><tspan
           style="font-size:8.99875px;font-family:ArialNarrow"
           id="tspan1">T</tspan></tspan></text>
    <text
       transform="matrix(0.9840775,-0.17777202,0.1777777,0.98407258,16.149737,-20.672674)"
       id="text22-0-6"
       x="155.13513"
       y="123.09775"
       style="font-size:11.9983px;white-space:pre;inline-size:12.9317;display:inline;stroke-width:0.999861"
       xml:space="preserve"><tspan
         x="155.13513"
         y="123.09775"
         id="tspan6"><tspan
           style="font-size:8.99875px;font-family:ArialNarrow"
           id="tspan5">h</tspan></tspan></text>
    <text
       transform="matrix(0.99329892,-0.11562301,0.11562901,0.99329435,27.140315,-32.235223)"
       id="text22-0-6-2"
       x="155.13513"
       y="123.09775"
       style="font-size:11.9983px;white-space:pre;inline-size:12.9317;display:inline;stroke-width:0.999861"
       xml:space="preserve"><tspan
         x="155.13513"
         y="123.09775"
         id="tspan8"><tspan
           style="font-size:8.99875px;font-family:ArialNarrow"
           id="tspan7">o</tspan></tspan></text>
    <text
       transform="matrix(0.99328769,-0.11571938,0.11572539,0.99328314,31.499958,-32.722923)"
       id="text22-0-6-2-6"
       x="155.13513"
       y="123.09775"
       style="font-size:11.9983px;white-space:pre;inline-size:12.9317;display:inline;stroke-width:0.999861"
       xml:space="preserve"><tspan
         x="155.13513"
         y="123.09775"
         id="tspan10"><tspan
           style="font-size:8.99875px;font-family:ArialNarrow"
           id="tspan9">m</tspan></tspan></text>
    <text
       transform="matrix(0.9840775,-0.17777202,0.1777777,0.98407258,22.129488,-25.373454)"
       id="text22-0-6-3"
       x="155.13513"
       y="123.09775"
       style="font-size:11.9983px;white-space:pre;inline-size:12.9317;display:inline;stroke-width:0.999861"
       xml:space="preserve" />
    <text
       transform="matrix(0.97979546,-0.20003079,0.20003637,0.97979037,14.61623,-18.39731)"
       id="text22-0-7"
       x="155.13513"
       y="123.09775"
       style="font-size:11.9983px;white-space:pre;inline-size:12.9317;display:inline;stroke-width:0.999861"
       xml:space="preserve" />
    <text
       transform="translate(99.284,199.123)"
       id="text23" />
    <text
       transform="translate(343.492,187.661)"
       id="text24"><tspan
         x="-1.997"
         y="3"
         font-family="Times-Roman"
         font-size="9px"
         fill="#000000"
         id="tspan23" /></text>
    <text
       transform="translate(338.174,174.474)"
       id="text25"><tspan
         x="-2.25"
         y="3"
         font-family="Times-Roman"
         font-size="9px"
         fill="#000000"
         id="tspan24">ξ</tspan></text>
    <text
       transform="translate(316.305,169.115)"
       id="text26"><tspan
         x="-3.0610001"
         y="3"
         font-family="Times-Roman"
         font-size="9px"
         fill="#000000"
         id="tspan25">ξ'</tspan></text>
    <text
       transform="translate(219.623,210.602)"
       id="text28"><tspan
         x="-2.6630001"
         y="2.5"
         font-family="ArialNarrow"
         font-size="9px"
         fill="#000000"
         id="tspan27">R</tspan></text>
    <text
       id="text29"
       x="279.78043"
       y="185.42319"><tspan
         x="278.55243"
         y="187.92319"
         font-family="ArialNarrow"
         font-size="9px"
         fill="#000000"
         id="tspan28">d</tspan></text>
    <g
       id="g38">
      <path
         d="M 348.91,204.39 V 45.592"
         fill-opacity="0"
         stroke="#929292"
         stroke-width="0.5"
         id="path29" />
      <g
         id="g31">
        <path
           d="M 84.926,204.39 H 348.91"
           fill="#ffffff"
           id="path30" />
        <path
           d="M 84.926,204.39 H 348.91"
           fill-opacity="0"
           stroke="#929292"
           stroke-width="0.5"
           id="path31" />
      </g>
      <g
         id="g36">
        <path
           d="m 85.52,216.602 c -0.491,-4.051 -0.542,-8.138 -0.594,-12.212"
           fill-opacity="0"
           stroke="#929292"
           stroke-width="0.5"
           id="path33" />
        <path
           d="m 216.918,72.398 c 72.897,0 131.992,59.095 131.992,131.992"
           fill-opacity="0"
           stroke="#929292"
           stroke-width="0.5"
           id="path34" />
        <path
           d="m 348.91,204.39 c 0.007,4.078 -0.182,8.155 -0.594,12.212"
           fill-opacity="0"
           stroke="#929292"
           stroke-width="0.5"
           id="path35" />
        <path
           d="m 84.926,204.39 c 0,-72.897 59.095,-131.992 131.992,-131.992"
           fill-opacity="0"
           stroke="#929292"
           stroke-width="0.5"
           id="path36" />
      </g>
      <path
         d="M 348.91,204.39 146.947,73.123"
         fill-opacity="0"
         stroke="#929292"
         stroke-width="0.5"
         id="path38" />
    </g>
    <g
       id="g40">
      <path
         d="m 341.995,198.999 5.8,0.995 4.107,-4.214 0.846,5.823 5.276,2.604 -5.276,2.604 -0.846,5.823 -4.107,-4.213 -5.8,0.995 2.738,-5.209 z"
         fill="#ffffff"
         id="path39" />
      <path
         d="m 341.995,198.999 5.8,0.995 4.107,-4.214 0.846,5.823 5.276,2.604 -5.276,2.604 -0.846,5.823 -4.107,-4.213 -5.8,0.995 2.738,-5.209 z"
         fill-opacity="0"
         stroke="#000000"
         stroke-width="1"
         id="path40" />
    </g>
    <text
       transform="rotate(90,114.857,238.112)"
       id="text40"><tspan
         x="-20.719999"
         y="2.1429999"
         font-family="ArialNarrow"
         font-size="9px"
         fill="#000000"
         id="tspan40">Plane of Sky</tspan></text>
    <text
       transform="translate(139.688,166.474)"
       id="text45"><tspan
         x="-1.846"
         y="2"
         font-family="ArialNarrow"
         font-size="9px"
         fill="#000000"
         id="tspan45">s</tspan></text>
    <text
       id="text45-0"
       x="178.80942"
       y="178.14085"><tspan
         x="176.96342"
         y="180.14085"
         font-family="ArialNarrow"
         font-size="9px"
         fill="#000000"
         id="tspan45-8">ℓ</tspan></text>
    <text
       id="text45-0-5"
       x="109.83905"
       y="200.30878"><tspan
         sodipodi:role="line"
         id="tspan29"
         x="107.99305"
         y="202.30878"><tspan
           x="107.99305"
           y="202.30878"
           font-family="ArialNarrow"
           font-size="9px"
           fill="#000000"
           id="tspan45-8-02">ε'</tspan></tspan></text>
    <text
       id="text45-0-8"
       x="200.62943"
       y="161.70518"
       transform="scale(1.0794538,0.92639445)"
       style="font-size:10.6232px;stroke-width:0.88527"><tspan
         x="198.99522"
         y="163.47572"
         font-family="ArialNarrow"
         font-size="7.96743px"
         fill="#000000"
         id="tspan45-8-0"
         style="stroke-width:0.88527">α</tspan></text>
    <text
       id="text45-0-8-8"
       x="218.96352"
       y="179.58752"
       transform="scale(1.0794538,0.92639445)"
       style="font-size:10.6232px;stroke-width:0.88527"><tspan
         x="217.32932"
         y="181.35806"
         font-family="ArialNarrow"
         font-size="7.96743px"
         fill="#000000"
         id="tspan45-8-0-6"
         style="stroke-width:0.88527">Χ'</tspan></text>
    <text
       id="text45-0-8-8-6"
       x="227.09811"
       y="139.96106"
       transform="scale(1.0794538,0.92639445)"
       style="font-size:10.6232px;stroke-width:0.88527"><tspan
         x="225.46391"
         y="141.7316"
         font-family="ArialNarrow"
         font-size="7.96743px"
         fill="#000000"
         id="tspan45-8-0-6-2"
         style="stroke-width:0.88527">Χ</tspan></text>
    <path
       d="m 96.546,204.207 -0.004,0.059"
       fill-opacity="0"
       stroke="#000000"
       stroke-width="0.5"
       id="path48" />
    <path
       d="m 232.38536,146.51688 c 0.47166,-1.99995 1.8257,-3.32018 3.50728,-3.9295"
       fill-opacity="0"
       stroke="#000000"
       stroke-width="0.5"
       id="path49"
       sodipodi:nodetypes="cc" />
    <path
       d="m 327.31,190.421 c 4.709,-7.639 12.824,-11.552 21.6,-11.996"
       fill-opacity="0"
       stroke="#000000"
       stroke-width="0.5"
       id="path50" />
    <path
       d="m 339.924,204.39 v -8.842 h 8.842"
       fill-opacity="0"
       stroke="#000000"
       stroke-width="0.5"
       id="path51" />
    <g
       id="g57">
      <g
         id="g56">
        <path
           d="m 126.987,209.172 -0.017,-0.106"
           fill-opacity="0"
           stroke="#000000"
           stroke-width="0.33"
           id="path55" />
      </g>
    </g>
    <path
       d="m 310.878,185.564 c 7.381,-14.606 22.09,-23.105 38.034,-23.515"
       fill-opacity="0"
       stroke="#000000"
       stroke-width="0.5"
       id="path57" />
    <g
       id="g60">
      <path
         d="m 240.508,151.475 c -0.398,0 -0.72,-0.323 -0.72,-0.72 0,-0.398 0.322,-0.72 0.72,-0.72 0.398,0 0.72,0.322 0.72,0.72 0,0.397 -0.322,0.72 -0.72,0.72 z"
         fill="#ffffff"
         id="path59" />
      <path
         d="m 240.508,151.475 c -0.398,0 -0.72,-0.323 -0.72,-0.72 0,-0.398 0.322,-0.72 0.72,-0.72 0.398,0 0.72,0.322 0.72,0.72 0,0.397 -0.322,0.72 -0.72,0.72 z"
         fill-opacity="0"
         stroke="#000000"
         stroke-width="0.5"
         id="path60" />
    </g>
    <path
       d="m 222.786,119.885 3.238,-1.802 1.802,3.239"
       fill-opacity="0"
       stroke="#000000"
       stroke-width="0.5"
       id="path61" />
    <g
       id="g63">
      <path
         d="m 216.97,128.083 14.88,-8.533"
         fill="#000000"
         fill-opacity="0.186"
         id="path62" />
      <path
         d="m 216.97,128.083 14.88,-8.533"
         fill-opacity="0"
         stroke="#000000"
         stroke-width="1.5"
         id="path63" />
    </g>
    <text
       id="text65"
       x="236.52785"
       y="137.21669"><tspan
         x="235.29985"
         y="139.71669"
         font-family="ArialNarrow"
         font-size="9px"
         fill="#000000"
         id="tspan65">r</tspan></text>
    <text
       id="text43-2-2"
       x="227.15016"
       y="143.45259"
       transform="scale(1.0125142,0.98764046)"
       style="font-size:8.79298px;stroke-width:0.732748"><tspan
         x="225.31609"
         y="145.65083"
         font-family="Times-Roman"
         font-size="6.59473px"
         fill="#000000"
         id="tspan43-0-4"
         style="stroke-width:0.732748">θ</tspan></text>
    <path
       style="fill:none;stroke:#000000;stroke-width:0.464;stroke-dasharray:none"
       d="m 239.78103,152.45256 -2.23358,4.68613 108.9635,52.20437 2.45255,-4.55474"
       id="path68"
       sodipodi:nodetypes="cccc" />
    <path
       style="fill:none;stroke:#000000;stroke-width:0.464"
       id="path19"
       sodipodi:type="arc"
       sodipodi:cx="85.138702"
       sodipodi:cy="204.08759"
       sodipodi:rx="20"
       sodipodi:ry="20"
       sodipodi:start="5.969026"
       sodipodi:end="0"
       sodipodi:arc-type="slice"
       d="m 104.15983,197.90724 a 20,20 0 0 1 0.97887,6.18035 H 85.138702 Z" />
    <text
       transform="matrix(0.99835841,-0.05737551,0.05738173,0.99835419,44.908395,-43.204793)"
       id="text22-0-6-2-67"
       x="155.13513"
       y="123.09775"
       style="font-size:11.9983px;white-space:pre;inline-size:12.9317;display:inline;stroke-width:0.999861"
       xml:space="preserve"><tspan
         x="155.13513"
         y="123.09775"
         id="tspan12"><tspan
           style="font-size:8.99875px;font-family:ArialNarrow"
           id="tspan11">s</tspan></tspan></text>
    <text
       transform="matrix(0.9999557,-0.01000263,0.01000909,0.99995173,54.068831,-50.960738)"
       id="text22-0-6-2-69"
       x="155.13513"
       y="123.09775"
       style="font-size:11.9983px;white-space:pre;inline-size:12.9317;display:inline;stroke-width:0.999861"
       xml:space="preserve"><tspan
         x="155.13513"
         y="123.09775"
         id="tspan14"><tspan
           style="font-size:8.99875px;font-family:ArialNarrow"
           id="tspan13">o</tspan></tspan></text>
    <text
       transform="matrix(0.9999154,-0.01343862,0.01344505,0.99991148,58.195974,-50.429005)"
       id="text22-0-6-2-0"
       x="155.13513"
       y="123.09775"
       style="font-size:11.9983px;white-space:pre;inline-size:12.9317;display:inline;stroke-width:0.999861"
       xml:space="preserve"><tspan
         x="155.13513"
         y="123.09775"
         id="tspan16"><tspan
           style="font-size:8.99875px;font-family:ArialNarrow"
           id="tspan15">n</tspan></tspan></text>
    <text
       transform="matrix(0.99848219,0.05517882,-0.05517219,0.99847875,73.453259,-60.893198)"
       id="text22-0-6-2-5"
       x="155.13513"
       y="123.09775"
       style="font-size:11.9983px;white-space:pre;inline-size:12.9317;display:inline;stroke-width:0.999861"
       xml:space="preserve"><tspan
         x="155.13513"
         y="123.09775"
         id="tspan18"><tspan
           style="font-size:8.99875px;font-family:ArialNarrow"
           id="tspan17">S</tspan></tspan></text>
    <text
       transform="matrix(0.99588406,0.09069888,-0.09069207,0.99588088,83.249702,-65.845465)"
       id="text22-0-6-2-1"
       x="155.13513"
       y="123.09775"
       style="font-size:11.9983px;white-space:pre;inline-size:12.9317;display:inline;stroke-width:0.999861"
       xml:space="preserve"><tspan
         x="155.13513"
         y="123.09775"
         id="tspan26"><tspan
           style="font-size:8.99875px;font-family:ArialNarrow"
           id="tspan19">u</tspan></tspan></text>
    <text
       transform="matrix(0.99688716,0.07891405,-0.07890728,0.99688382,86.116697,-63.688829)"
       id="text22-0-6-2-60"
       x="155.13513"
       y="123.09775"
       style="font-size:11.9983px;white-space:pre;inline-size:12.9317;display:inline;stroke-width:0.999861"
       xml:space="preserve"><tspan
         x="155.13513"
         y="123.09775"
         id="tspan31"><tspan
           style="font-size:8.99875px;font-family:ArialNarrow"
           id="tspan30">r</tspan></tspan></text>
    <text
       transform="matrix(0.99569141,0.09279039,-0.09278358,0.99568817,90.991429,-65.264196)"
       id="text22-0-6-2-3"
       x="155.13513"
       y="123.09775"
       style="font-size:11.9983px;white-space:pre;inline-size:12.9317;display:inline;stroke-width:0.999861"
       xml:space="preserve"><tspan
         x="155.13513"
         y="123.09775"
         id="tspan33"><tspan
           style="font-size:8.99875px;font-family:ArialNarrow"
           id="tspan32">f</tspan></tspan></text>
    <text
       transform="matrix(0.98537447,0.17043652,-0.17042944,0.98537178,104.279,-75.983914)"
       id="text22-0-6-2-59"
       x="155.13513"
       y="123.09775"
       style="font-size:11.9983px;white-space:pre;inline-size:12.9317;display:inline;stroke-width:0.999861"
       xml:space="preserve"><tspan
         x="155.13513"
         y="123.09775"
         id="tspan35"><tspan
           style="font-size:8.99875px;font-family:ArialNarrow"
           id="tspan34">a</tspan></tspan></text>
    <text
       transform="matrix(0.98673949,0.16234712,-0.1623401,0.98673676,107.68568,-73.903582)"
       id="text22-0-6-2-8"
       x="155.13513"
       y="123.09775"
       style="font-size:11.9983px;white-space:pre;inline-size:12.9317;display:inline;stroke-width:0.999861"
       xml:space="preserve"><tspan
         x="155.13513"
         y="123.09775"
         id="tspan37"><tspan
           style="font-size:8.99875px;font-family:ArialNarrow"
           id="tspan36">c</tspan></tspan></text>
    <text
       transform="matrix(0.97296761,0.23096639,-0.23095917,0.97296538,122.40721,-82.057182)"
       id="text22-0-6-2-55"
       x="155.13513"
       y="123.09775"
       style="font-size:11.9983px;white-space:pre;inline-size:12.9317;display:inline;stroke-width:0.999861"
       xml:space="preserve"><tspan
         x="155.13513"
         y="123.09775"
         id="tspan39"><tspan
           style="font-size:8.99875px;font-family:ArialNarrow"
           id="tspan38">e</tspan></tspan></text>
    <path
       style="fill:none;stroke:#000000;stroke-width:0.464"
       d="m 112.78492,188.15541 c 3.13341,5.82953 4.48277,9.41994 4.52134,16.32023"
       id="path4"
       sodipodi:nodetypes="cc" />
    <text
       id="text45-0-5-3"
       x="118.34452"
       y="189.3183"><tspan
         sodipodi:role="line"
         x="116.4985"
         y="191.3183"
         id="tspan4"><tspan
           x="116.4985"
           y="191.3183"
           font-family="ArialNarrow"
           font-size="9px"
           fill="#000000"
           id="tspan45-8-02-7">ε</tspan></tspan></text>
    <path
       style="fill:#ffffff;fill-opacity:1;stroke:#000000;stroke-width:0.464"
       d="m 229.90657,129.34683 13.50213,-1.05292"
       id="path7" />
  </g>
</svg>
